<?xml version="1.0" encoding="utf-8"?>
<!-- Generator: Adobe Illustrator 27.3.1, SVG Export Plug-In . SVG Version: 6.00 Build 0)  -->
<svg version="1.1" id="Layer_1" xmlns="http://www.w3.org/2000/svg" xmlns:xlink="http://www.w3.org/1999/xlink" x="0px" y="0px"
	 viewBox="0 0 100 100" style="enable-background:new 0 0 100 100;" xml:space="preserve">
<style type="text/css">
	.st0{fill:#6E7DEA;}
	.st1{fill:none;stroke:#000000;stroke-miterlimit:10;}
	.st2{fill:#BB0F00;}
</style>
<circle class="st0" cx="20.54" cy="46.03" r="9.83"/>
<circle class="st0" cx="51.63" cy="47.09" r="9.83"/>
<ellipse class="st0" cx="34.49" cy="56.91" rx="14.86" ry="13.11"/>
<circle cx="27.49" cy="54.8" r="1.46"/>
<circle cx="41.8" cy="55.46" r="1.46"/>
<path class="st1" d="M27,61.44L30.37,64l4.11-2.11C37,64.56,37,64,37,64c4.22-2.11,4.11-1.25,4.11-1.25"/>
<path class="st1" d="M37,64.56"/>
<path class="st1" d="M41.89,52.83"/>
<circle class="st2" cx="74.56" cy="24.11" r="8"/>
<path class="st2" d="M70.33,7.11"/>
<path class="st2" d="M83.78,27.89"/>
<path class="st2" d="M75,33.22"/>
<path class="st2" d="M75,33.22"/>
<path class="st2" d="M83.78,27.89"/>
<rect x="75.89" y="5.22" class="st2" width="1" height="9.78"/>
<rect x="67.17" y="5.67" transform="matrix(0.9261 -0.3774 0.3774 0.9261 1.0194 26.3144)" class="st2" width="1" height="9.78"/>
<rect x="83.28" y="8.35" transform="matrix(0.866 0.5 -0.5 0.866 17.8435 -40.1152)" class="st2" width="1" height="9.78"/>
</svg>
